<?xml version="1.0" standalone="no"?>
<!DOCTYPE svg PUBLIC "-//W3C//DTD SVG 20010904//EN"
 "http://www.w3.org/TR/2001/REC-SVG-20010904/DTD/svg10.dtd">
<svg version="1.0" xmlns="http://www.w3.org/2000/svg"
 width="117.000000pt" height="117.000000pt" viewBox="0 0 117.000000 117.000000"
 preserveAspectRatio="xMidYMid meet">
<metadata>
Created by potrace 1.11, written by Peter Selinger 2001-2013
</metadata>
<g transform="translate(0.000000,117.000000) scale(0.100000,-0.100000)"
fill="#000000" stroke="none">
<path d="M75 997 c-43 -20 -57 -42 -57 -86 1 -59 63 -165 155 -265 l45 -50
-61 -67 c-119 -132 -170 -248 -132 -305 26 -40 69 -53 160 -50 95 4 186 31
308 92 l88 44 42 -24 c188 -110 438 -146 514 -74 21 20 24 29 18 63 -6 41 -64
154 -87 171 -11 8 -56 11 -91 5 -4 0 4 -19 19 -40 14 -22 28 -57 31 -79 5 -35
2 -42 -21 -57 -55 -36 -176 -22 -301 34 -36 16 -65 33 -65 38 0 4 18 20 39 35
21 15 58 43 81 63 l42 35 -46 0 c-41 0 -55 -7 -112 -50 l-65 -50 -47 32 c-60
40 -174 139 -168 145 2 3 135 5 295 4 160 0 291 2 291 5 0 10 -115 114 -189
172 -40 31 -85 67 -99 78 l-26 21 39 20 c154 77 325 91 341 28 7 -29 -7 -74
-36 -114 l-20 -29 28 -4 c51 -7 74 6 115 65 45 67 58 124 34 160 -30 47 -155
56 -286 22 -65 -16 -205 -74 -244 -100 -24 -15 -28 -14 -103 24 -44 22 -113
52 -154 66 -93 32 -230 42 -275 22z m305 -95 c31 -11 75 -29 99 -41 l43 -22
-59 -41 c-60 -43 -134 -100 -167 -130 -26 -24 -28 -23 -60 13 -44 49 -88 137
-88 177 0 56 31 74 112 68 36 -3 90 -14 120 -24z m230 -119 c44 -29 160 -125
160 -132 0 -3 -88 -6 -195 -6 -107 0 -195 3 -195 6 0 14 182 149 200 149 3 0
17 -7 30 -17z m-259 -306 c41 -35 96 -78 122 -97 44 -31 46 -34 28 -47 -11 -7
-55 -27 -98 -45 -97 -40 -206 -46 -242 -14 -41 37 -20 116 58 214 23 28 45 52
49 52 4 0 41 -28 83 -63z"/>
</g>
</svg>
