<svg xmlns="http://www.w3.org/2000/svg" width="263.87" height="16.937" viewBox="0 0 263.87 16.937"><defs><style>.a{fill:#1a1818;stroke:rgba(0,0,0,0);}</style></defs><path class="a" d="M-1293.782,48.433l.895-3.533c.476.025.984.071,1.46.071,1.253,0,2.145-.046,2.145-1.189l-2.742-10.886h5.963l1.015,7.1h.059l3.965-7.1h6.138l-8.586,12.574c-1.311,1.945-2.234,3.08-7.567,3.08C-1291.964,48.549-1292.86,48.5-1293.782,48.433Zm-19.384.116,4.294-15.654h5.727l-.358,1.36h.059a5.269,5.269,0,0,1,4.144-1.64c4.347,0,5.624,2.759,5.624,4.819,0,3.511-2.291,7.57-7.531,7.57-1.7,0-3.37-.158-4.653-1.733l-1.4,5.278Zm8.348-8.764a1.923,1.923,0,0,0,2.149,1.935c2.355,0,3.1-2.232,3.1-3.761,0-1.164-.418-2.1-2.146-2.1C-1304.339,35.863-1304.818,38.736-1304.818,39.785Zm-129.314,8.764,4.295-15.654h5.725l-.356,1.36h.058a5.268,5.268,0,0,1,4.142-1.64c4.348,0,5.626,2.759,5.626,4.819,0,3.511-2.289,7.57-7.532,7.57-1.7,0-3.368-.158-4.649-1.733l-1.4,5.278Zm8.35-8.764a1.919,1.919,0,0,0,2.148,1.935c2.354,0,3.1-2.232,3.1-3.761,0-1.164-.418-2.1-2.146-2.1C-1425.307,35.863-1425.782,38.736-1425.782,39.785Zm149.819,5.333V40.865h4.249v4.252Zm7.9-5.494c0-4.023,3.422-7.008,9.322-7.008,4.293,0,7.483,1.482,7.4,4.787h-5.666a1.2,1.2,0,0,0-.417-1.162,2.369,2.369,0,0,0-1.495-.343c-2.561,0-3.249,2.561-3.249,3.671s.329,2.151,2.03,2.151a2.755,2.755,0,0,0,2.593-1.713h5.663c-1.013,3.369-3.845,5-8.318,5C-1266.748,45.011-1268.058,41.827-1268.058,39.623Zm-79.723,0c0-4.023,3.425-7.008,9.322-7.008,4.292,0,7.483,1.482,7.4,4.787h-5.669a1.2,1.2,0,0,0-.418-1.162,2.359,2.359,0,0,0-1.491-.343c-2.564,0-3.25,2.561-3.25,3.671s.328,2.151,2.025,2.151a2.76,2.76,0,0,0,2.6-1.713h5.663c-1.013,3.369-3.847,5-8.317,5C-1346.471,45.011-1347.781,41.827-1347.781,39.623Zm-17.328,1.239h5.417a1.251,1.251,0,0,0,.537,1.088,3.227,3.227,0,0,0,1.546.293c1.577,0,1.783-.774,1.783-1.047,0-.842-1.487-.909-3.686-1.208-1.044-.135-4.2-.475-4.2-3.052,0-3.391,3.96-4.323,7.679-4.323,3.271,0,7.264.544,6.936,3.731h-5.271a.817.817,0,0,0-.418-.925,2.754,2.754,0,0,0-1.365-.3c-.8,0-1.667.252-1.667.953,0,.642.566.823,1.339.891,4.372.455,6.547,1.183,6.547,3.666,0,2.724-3.068,4.376-7.825,4.376C-1361.09,45.011-1365.232,44.4-1365.108,40.863Zm-16.581,0h5.418a1.247,1.247,0,0,0,.54,1.088,3.222,3.222,0,0,0,1.544.293c1.578,0,1.784-.774,1.784-1.047,0-.842-1.487-.909-3.687-1.208-1.043-.135-4.2-.475-4.2-3.052,0-3.391,3.958-4.323,7.68-4.323,3.275,0,7.264.544,6.936,3.731h-5.272a.819.819,0,0,0-.417-.925,2.763,2.763,0,0,0-1.369-.3c-.8,0-1.661.252-1.661.953,0,.642.562.823,1.335.891,4.374.455,6.547,1.183,6.547,3.666,0,2.724-3.063,4.376-7.825,4.376C-1377.667,45.011-1381.808,44.4-1381.689,40.863Zm131.31-1.387c0-3.761,3.216-6.861,9.553-6.861,4.541,0,7.519,1.6,7.519,5.162,0,3.013-2.2,7.227-9.346,7.227C-1246.927,45-1250.379,43.431-1250.379,39.476Zm5.9.343c0,.951.419,1.9,2.1,1.9,2.339,0,3.18-2.6,3.18-3.624,0-1.4-.479-2.2-2.072-2.2C-1243.644,35.9-1244.484,38.595-1244.484,39.819Zm-85.616-.343c0-3.761,3.217-6.861,9.556-6.861,4.538,0,7.515,1.6,7.515,5.162,0,3.013-2.2,7.227-9.346,7.227C-1326.647,45-1330.1,43.431-1330.1,39.476Zm5.893.343c0,.951.423,1.9,2.1,1.9,2.344,0,3.185-2.6,3.185-3.624,0-1.4-.482-2.2-2.072-2.2C-1323.365,35.9-1324.207,38.595-1324.207,39.819Zm-75.511,0c0-5.434,5.431-7.207,9.281-7.207,3.432,0,7.581,1.455,7.581,5.177a5.728,5.728,0,0,1-.3,2.052H-1394.2c0,1.244.568,2.281,2.42,2.281a2.79,2.79,0,0,0,2.326-.848h5.661c-.389.794-1.552,3.73-8.231,3.73C-1397.512,45-1399.718,42.661-1399.718,39.819Zm6.027-2.328h5.252l.059-.388c0-.9-.745-1.606-2.239-1.606A2.978,2.978,0,0,0-1393.691,37.49Zm-73.95,2.328c0-5.434,5.432-7.207,9.283-7.207,3.431,0,7.578,1.455,7.578,5.177a5.721,5.721,0,0,1-.3,2.052h-11.043c0,1.244.568,2.281,2.418,2.281a2.788,2.788,0,0,0,2.326-.848h5.661c-.388.794-1.549,3.73-8.229,3.73C-1465.43,45-1467.641,42.661-1467.641,39.819Zm6.029-2.328h5.251l.06-.388c0-.9-.747-1.606-2.238-1.606A2.978,2.978,0,0,0-1461.612,37.49Zm248.691,7.236,1.579-5.663a12.5,12.5,0,0,0,.358-1.736c0-.753-.567-1.142-1.522-1.142a2.062,2.062,0,0,0-2.221,1.372l-2.026,7.169h-5.9l1.786-6.349a4.54,4.54,0,0,0,.242-1.1c0-.752-.538-1.1-1.492-1.1a2.281,2.281,0,0,0-2.476,1.759l-1.91,6.782h-5.9l3.218-11.831h5.726l-.434,1.55h.065a7.066,7.066,0,0,1,4.856-1.833c2.026,0,3.785.5,4.175,1.945a7.178,7.178,0,0,1,5.071-1.945c3.014,0,4.957,1.063,4.957,3.486a10.026,10.026,0,0,1-.361,1.87l-1.881,6.759Zm-200.851,0,3.183-11.829h5.722l-.507,1.848h.059a6.458,6.458,0,0,1,4.5-2.134,8.164,8.164,0,0,1,2.089.183l-1.113,3.971a8.424,8.424,0,0,0-2.264-.3c-2.5,0-3.751.821-4.438,3.308l-1.34,4.949Zm-26.458,0-1.7-2.888-2.863,2.888h-6.5l6.948-6.31-3.521-5.519h5.965l1.253,2.512,2.2-2.512h6.44l-6.17,5.747,3.905,6.081Z" transform="translate(1468.141 -32.112)"/></svg>