<svg xmlns="http://www.w3.org/2000/svg" width="131.87" height="11.783" viewBox="0 0 131.87 11.783">
  <path id="ec-logo-text-mob" d="M-4.362-85.537l.6-2.39c.323.017.666.048.989.048.847,0,1.45-.031,1.45-.8L-3.174-96.05H.86l.687,4.8h.04l2.684-4.8H8.423l-5.81,8.508c-.887,1.316-1.511,2.083-5.119,2.083C-3.132-85.459-3.739-85.491-4.362-85.537Zm-13.117.078,2.905-10.591H-10.7l-.243.92h.04a3.565,3.565,0,0,1,2.8-1.11c2.941,0,3.806,1.868,3.806,3.261a4.919,4.919,0,0,1-5.1,5.123,3.636,3.636,0,0,1-3.148-1.173l-.948,3.57Zm5.648-5.93a1.3,1.3,0,0,0,1.454,1.31,2.271,2.271,0,0,0,2.1-2.545c0-.787-.282-1.417-1.452-1.417C-11.506-94.041-11.831-92.1-11.831-91.389Zm-87.5,5.93,2.906-10.591h3.874l-.242.92h.04a3.564,3.564,0,0,1,2.8-1.11c2.941,0,3.806,1.868,3.806,3.261a4.918,4.918,0,0,1-5.1,5.123,3.631,3.631,0,0,1-3.146-1.173l-.95,3.57Zm5.649-5.93a1.3,1.3,0,0,0,1.453,1.31,2.271,2.271,0,0,0,2.1-2.545c0-.787-.283-1.417-1.453-1.417C-93.356-94.041-93.677-92.1-93.677-91.389ZM-40.9-91.5c0-2.722,2.318-4.742,6.308-4.742,2.9,0,5.062,1,5,3.24h-3.836a.81.81,0,0,0-.283-.787,1.593,1.593,0,0,0-1.009-.232,2.353,2.353,0,0,0-2.2,2.484c0,.751.222,1.455,1.371,1.455a1.867,1.867,0,0,0,1.758-1.159h3.831c-.685,2.28-2.6,3.387-5.627,3.387C-40.014-87.852-40.9-90.006-40.9-91.5Zm-11.724.839h3.666a.844.844,0,0,0,.364.736,2.182,2.182,0,0,0,1.046.2c1.067,0,1.206-.524,1.206-.707,0-.571-1.005-.616-2.494-.817-.707-.092-2.841-.322-2.841-2.066,0-2.294,2.68-2.925,5.2-2.925,2.214,0,4.915.369,4.694,2.525h-3.568a.552.552,0,0,0-.283-.626,1.861,1.861,0,0,0-.923-.2c-.543,0-1.129.17-1.129.644,0,.434.383.556.907.6,2.958.308,4.429.8,4.429,2.48,0,1.843-2.075,2.962-5.294,2.962C-49.905-87.852-52.708-88.266-52.624-90.659Zm-11.219,0h3.667a.843.843,0,0,0,.365.736,2.178,2.178,0,0,0,1.045.2c1.067,0,1.207-.524,1.207-.707,0-.571-1.006-.616-2.495-.817-.707-.092-2.84-.322-2.84-2.066,0-2.294,2.678-2.925,5.2-2.925,2.216,0,4.915.369,4.694,2.525h-3.568a.554.554,0,0,0-.283-.626,1.863,1.863,0,0,0-.925-.2c-.541,0-1.125.17-1.125.644,0,.434.381.556.9.6,2.959.308,4.43.8,4.43,2.48,0,1.843-2.073,2.962-5.295,2.962C-61.122-87.852-63.923-88.266-63.843-90.659Zm34.907-.939c0-2.544,2.175-4.642,6.466-4.642,3.07,0,5.084,1.08,5.084,3.494,0,2.038-1.489,4.89-6.323,4.89C-26.6-87.856-28.936-88.921-28.936-91.6Zm3.987.232c0,.644.286,1.286,1.421,1.286,1.586,0,2.155-1.761,2.155-2.452,0-.948-.326-1.487-1.4-1.487C-24.378-94.019-24.949-92.194-24.949-91.365Zm-51.092,0c0-3.676,3.674-4.876,6.279-4.876,2.322,0,5.129.985,5.129,3.5a3.876,3.876,0,0,1-.2,1.388h-7.471c0,.842.384,1.543,1.637,1.543a1.888,1.888,0,0,0,1.574-.573h3.83c-.264.537-1.05,2.524-5.569,2.524C-74.549-87.856-76.041-89.443-76.041-91.365Zm4.077-1.576h3.554l.041-.262c0-.607-.5-1.087-1.515-1.087A2.017,2.017,0,0,0-71.964-92.941ZM-122-91.365c0-3.676,3.676-4.876,6.281-4.876,2.321,0,5.127.985,5.127,3.5a3.87,3.87,0,0,1-.2,1.388h-7.472c0,.842.384,1.543,1.636,1.543a1.887,1.887,0,0,0,1.574-.573h3.83c-.262.537-1.048,2.524-5.567,2.524C-120.5-87.856-122-89.443-122-91.365Zm4.08-1.576h3.553l.04-.262c0-.607-.506-1.087-1.514-1.087A2.017,2.017,0,0,0-117.921-92.941Zm32.369,4.9,2.155-8h3.872l-.343,1.25h.04a4.371,4.371,0,0,1,3.047-1.444,5.5,5.5,0,0,1,1.413.123l-.752,2.687a5.713,5.713,0,0,0-1.532-.2,2.635,2.635,0,0,0-3,2.238l-.907,3.349Zm-17.9,0L-104.6-90l-1.938,1.955h-4.4l4.7-4.27-2.383-3.734h4.036l.848,1.7,1.491-1.7h4.358l-4.175,3.889,2.642,4.115Z" transform="translate(122.5 96.742)" fill="#1a1818" stroke="rgba(0,0,0,0)" stroke-width="1"/>
</svg>
