<svg xmlns="http://www.w3.org/2000/svg" width="58.462" height="43" viewBox="0 0 58.462 43"><defs><style>.a{stroke:rgba(0,0,0,0);}</style></defs><path class="a" d="M-1385.927,66.063l.393-.39C-1395.792,55.3-1400.84,45-1388.365,45c6.414,0,13.681,2.815,20.691,7.031,7.359-4.22,14.892-6.9,21.307-6.9,8.426,0,10.463,4.474,2.458,13.55h-4.825c4.622-5.921,4.637-9.536-1.642-9.536-4.307,0-9.433,1.827-14.535,4.633a98.381,98.381,0,0,1,16.242,13.544h-30.462a72.574,72.574,0,0,0,11.518,9.2,52.042,52.042,0,0,0,6.186-4.838h4.824a82.615,82.615,0,0,1-8.335,6.459c4.891,2.79,9.99,4.726,14.432,4.726,7.078,0,6.79-4.135,2.358-10.11h4.766c6.917,8.961,6.889,14.122-3.113,14.122-6.724,0-14.077-2.727-21.179-6.977-7.411,4.535-14.689,7.1-20.559,7.1C-1400.336,87-1397.311,77.451-1385.927,66.063Zm1.7,16.926c3.709,0,8.813-1.809,13.881-4.764a93.59,93.59,0,0,1-12.739-10.156C-1390.155,75.812-1392.756,82.989-1384.223,82.989Zm26.779-19.687a65.506,65.506,0,0,0-10.126-7.98,76.534,76.534,0,0,0-10.668,7.98Zm-25.7,0h.107a89.939,89.939,0,0,1,12.677-9.66c-4.943-2.792-9.948-4.63-13.995-4.63C-1392.279,49.012-1389.675,56-1383.143,63.3Z" transform="translate(1396.503 -44.5)"/></svg>